<?xml version="1.0" standalone="no"?>
<!DOCTYPE svg PUBLIC "-//W3C//DTD SVG 20010904//EN"
 "http://www.w3.org/TR/2001/REC-SVG-20010904/DTD/svg10.dtd">
<svg version="1.0" xmlns="http://www.w3.org/2000/svg"
 width="300.000000pt" height="300.000000pt" viewBox="0 0 300.000000 300.000000"
 preserveAspectRatio="xMidYMid meet">
<metadata>
Created by potrace 1.11, written by Peter Selinger 2001-2013
</metadata>
<g transform="translate(0.000000,300.000000) scale(0.100000,-0.100000)"
fill="#000000" stroke="none">
<path d="M1271 2447 c-78 -129 -141 -241 -141 -248 0 -12 138 -447 161 -507
10 -26 11 -25 49 41 l39 67 19 437 c10 241 18 439 16 441 -1 2 -65 -102 -143
-231z"/>
<path d="M1444 2580 c3 -58 13 -259 22 -448 l18 -343 39 -71 c21 -38 42 -66
46 -62 4 5 45 124 91 266 l84 256 -153 254 -153 253 6 -105z"/>
<path d="M997 1989 l-97 -161 136 -190 c75 -104 140 -186 143 -181 4 4 19 28
33 53 l25 45 -66 292 c-36 160 -69 294 -72 297 -3 4 -49 -66 -102 -155z"/>
<path d="M1766 2119 c-3 -8 -34 -144 -70 -302 l-64 -289 25 -44 c14 -25 29
-44 33 -42 5 2 68 85 140 186 l132 182 -45 78 c-107 184 -146 245 -151 231z"/>
<path d="M800 1659 c-39 -66 -68 -125 -64 -129 13 -13 335 -220 345 -223 5 -1
18 12 28 28 l20 30 -119 205 c-66 112 -123 206 -128 208 -5 1 -42 -52 -82
-119z"/>
<path d="M1927 1678 c-186 -319 -191 -327 -179 -353 7 -14 16 -25 21 -25 7 0
329 202 359 226 4 3 -138 244 -144 244 -1 0 -27 -42 -57 -92z"/>
<path d="M605 1334 c-55 -92 -102 -171 -103 -176 -2 -5 7 -23 21 -41 40 -52
57 -94 57 -135 0 -39 -3 -45 -85 -158 -24 -33 -5 -74 35 -74 65 0 146 67 294
244 33 40 66 66 100 82 44 20 57 33 90 90 31 55 36 69 24 79 -33 31 -320 255
-326 255 -4 0 -52 -75 -107 -166z"/>
<path d="M2090 1454 c-90 -74 -88 -71 -48 -87 20 -8 50 -36 72 -66 28 -38 47
-53 76 -61 30 -8 51 -26 104 -93 36 -45 66 -88 66 -95 0 -7 -7 -27 -16 -44
-16 -31 -26 -33 -89 -13 -19 6 -19 5 -1 -7 10 -7 28 -21 40 -30 l21 -16 -20
-37 c-10 -20 -30 -45 -44 -56 -22 -18 -26 -18 -42 -4 -16 15 -18 14 -33 -7 -9
-12 -16 -38 -16 -58 -1 -19 -7 -53 -15 -75 l-14 -39 74 -121 c41 -67 82 -128
92 -137 10 -9 36 -20 58 -23 53 -10 72 -21 80 -45 6 -19 15 -20 211 -20 112 0
204 3 204 6 0 8 -680 1147 -694 1161 -8 9 -24 2 -66 -33z"/>
<path d="M2019 1319 c40 -40 43 -74 4 -37 -85 79 -169 76 -219 -8 -8 -14 -21
-17 -62 -15 -61 2 -100 -16 -125 -58 l-19 -32 25 7 c34 8 75 -5 56 -17 -8 -5
-25 -9 -38 -9 -15 0 -39 -16 -64 -42 -56 -59 -120 -73 -227 -50 -48 11 -122
17 -205 16 -193 0 -210 -8 -394 -195 -122 -123 -152 -149 -183 -154 -58 -11
-87 1 -104 41 -20 48 -4 98 37 120 31 16 69 68 69 95 0 8 -12 39 -26 68 -24
47 -28 50 -38 33 -6 -10 -21 -34 -34 -53 -16 -24 -22 -44 -19 -69 2 -19 -2
-49 -10 -67 -7 -18 -13 -58 -13 -88 0 -49 4 -60 29 -86 25 -25 37 -29 83 -29
35 0 71 8 105 25 29 13 53 22 53 19 0 -3 -9 -18 -19 -33 -28 -38 -111 -81
-173 -88 -75 -8 -88 -17 -88 -61 -1 -20 -8 -55 -16 -77 -22 -56 -28 -95 -15
-95 6 0 17 -13 26 -30 15 -29 18 -30 85 -30 52 0 70 3 70 13 0 17 -26 40 -65
58 -36 17 -42 46 -21 88 22 43 41 50 158 61 171 17 198 29 299 126 96 92 109
97 190 69 23 -9 78 -35 120 -60 144 -83 237 -92 262 -25 17 45 31 36 23 -16
-3 -25 -2 -43 2 -40 15 9 10 -58 -9 -125 -24 -85 -24 -104 3 -123 25 -17 188
-23 188 -7 0 15 -26 30 -66 39 -34 7 -39 12 -42 37 -4 50 36 105 113 156 72
48 105 87 105 127 0 13 4 20 10 17 18 -11 11 -51 -15 -90 -15 -20 -24 -39 -22
-42 9 -8 85 17 111 38 34 27 34 5 0 -26 l-27 -25 41 0 c23 0 53 5 67 12 28 13
65 74 65 108 0 11 5 20 10 20 6 0 10 -14 10 -31 0 -18 4 -28 10 -24 21 13 50
86 50 126 0 26 7 50 20 66 l20 25 -26 30 c-29 35 -25 49 5 19 12 -12 27 -21
35 -21 7 0 20 -10 28 -22 l15 -23 22 35 c28 46 27 55 -8 70 -33 13 -43 30 -31
50 6 10 15 10 45 -1 35 -13 38 -12 56 10 10 13 16 28 13 33 -4 6 -9 6 -14 -2
-4 -7 -13 -9 -19 -6 -16 10 -14 24 5 28 11 2 -2 23 -45 74 -45 53 -69 73 -93
78 -22 4 -50 25 -88 66 -31 33 -64 60 -74 60 -14 0 -12 -6 13 -31z m32 -160
c20 -10 20 -11 -5 -34 -38 -35 -34 -69 14 -117 60 -62 57 -93 -20 -171 -72
-75 -80 -60 -10 18 62 68 64 92 11 134 -47 37 -99 41 -148 11 -18 -11 -33 -16
-33 -11 0 15 48 49 85 61 24 8 34 18 38 38 2 15 8 35 12 46 8 17 4 18 -48 14
-32 -3 -57 -1 -57 3 0 19 129 25 161 8z m166 -34 c-13 -9 -17 -20 -12 -34 6
-20 4 -20 -39 6 -25 15 -46 31 -46 35 0 5 26 8 58 8 51 -1 55 -2 39 -15z
m-467 -105 c0 -5 -7 -10 -17 -10 -9 0 -35 -11 -59 -25 -41 -24 -61 -55 -112
-175 -10 -23 -11 -21 -11 20 -1 80 54 168 119 193 26 9 80 8 80 -3z m-405 -20
c113 -17 175 -37 175 -60 0 -29 -13 -31 -75 -10 -70 24 -190 46 -305 56 -65 6
-78 9 -55 15 46 10 182 10 260 -1z m439 -92 c-4 -7 -16 -25 -26 -39 -11 -15
-25 -62 -33 -118 -10 -70 -20 -100 -36 -117 -22 -23 -46 -34 -35 -15 4 5 13
47 22 93 18 96 45 160 81 188 30 23 37 25 27 8z"/>
<path d="M263 762 c-117 -196 -224 -376 -238 -399 l-26 -43 195 0 196 0 -20
33 c-25 40 -25 54 0 108 11 24 20 62 20 84 0 62 19 81 88 88 32 4 69 11 83 16
22 9 20 10 -16 10 -90 2 -143 71 -130 171 4 30 10 80 14 110 7 58 20 88 45
110 16 12 23 70 9 70 -5 0 -104 -161 -220 -358z"/>
<path d="M998 689 l-31 -30 82 -83 c44 -46 82 -92 82 -102 1 -11 2 -32 3 -49
1 -32 17 -43 125 -84 66 -26 161 -29 161 -6 0 17 -20 27 -103 50 -53 15 -60
20 -77 58 -12 25 -18 56 -15 77 2 19 7 57 9 83 l6 48 -72 34 c-92 44 -129 45
-170 4z"/>
<path d="M2080 605 c-18 -18 -46 -39 -61 -46 -36 -14 -36 -22 -1 -45 15 -9 54
-45 87 -79 48 -49 74 -67 130 -88 71 -27 185 -38 185 -18 0 17 -43 41 -73 41
-16 0 -37 4 -47 10 -21 11 -104 122 -153 203 l-34 56 -33 -34z"/>
<path d="M2912 355 c0 -16 2 -22 5 -12 2 9 2 23 0 30 -3 6 -5 -1 -5 -18z"/>
</g>
</svg>
